<mxfile host="Electron" modified="2023-11-06T20:30:20.898Z" agent="Mozilla/5.0 (Windows NT 10.0; Win64; x64) AppleWebKit/537.36 (KHTML, like Gecko) draw.io/21.2.8 Chrome/112.0.5615.165 Electron/24.2.0 Safari/537.36" etag="kpZPjSMa87NXSlZveUk3" version="21.2.8" type="device" pages="2">
  <diagram name="Page-1" id="c4acf3e9-155e-7222-9cf6-157b1a14988f">
    <mxGraphModel dx="1036" dy="614" grid="1" gridSize="10" guides="1" tooltips="1" connect="1" arrows="1" fold="1" page="1" pageScale="1" pageWidth="850" pageHeight="1100" background="none" math="0" shadow="0">
      <root>
        <mxCell id="0" />
        <mxCell id="1" parent="0" />
        <mxCell id="vFogFTLMhH-ScmNpSSFJ-5" value="" style="endArrow=diamondThin;endFill=0;endSize=24;html=1;entryX=1;entryY=0.5;entryDx=0;entryDy=0;exitX=0;exitY=0.25;exitDx=0;exitDy=0;" parent="1" source="vFogFTLMhH-ScmNpSSFJ-6" target="vFogFTLMhH-ScmNpSSFJ-10" edge="1">
          <mxGeometry width="160" relative="1" as="geometry">
            <mxPoint x="400" y="170" as="sourcePoint" />
            <mxPoint x="310" y="155" as="targetPoint" />
          </mxGeometry>
        </mxCell>
        <mxCell id="vFogFTLMhH-ScmNpSSFJ-6" value="TContext" style="swimlane;fontStyle=0;childLayout=stackLayout;horizontal=1;startSize=26;fillColor=none;horizontalStack=0;resizeParent=1;resizeParentMax=0;resizeLast=0;collapsible=1;marginBottom=0;" parent="1" vertex="1">
          <mxGeometry x="410" y="148" width="140" height="52" as="geometry" />
        </mxCell>
        <mxCell id="vFogFTLMhH-ScmNpSSFJ-10" value="TContexts" style="swimlane;fontStyle=0;childLayout=stackLayout;horizontal=1;startSize=26;fillColor=none;horizontalStack=0;resizeParent=1;resizeParentMax=0;resizeLast=0;collapsible=1;marginBottom=0;" parent="1" vertex="1">
          <mxGeometry x="170" y="90" width="140" height="52" as="geometry" />
        </mxCell>
        <mxCell id="vFogFTLMhH-ScmNpSSFJ-14" value="TCompilerBase" style="swimlane;fontStyle=0;childLayout=stackLayout;horizontal=1;startSize=26;fillColor=none;horizontalStack=0;resizeParent=1;resizeParentMax=0;resizeLast=0;collapsible=1;marginBottom=0;" parent="1" vertex="1">
          <mxGeometry x="170" y="250" width="140" height="52" as="geometry" />
        </mxCell>
        <mxCell id="vFogFTLMhH-ScmNpSSFJ-18" value="Extends" style="endArrow=block;endSize=16;endFill=0;html=1;exitX=0.5;exitY=0;exitDx=0;exitDy=0;" parent="1" source="vFogFTLMhH-ScmNpSSFJ-14" edge="1">
          <mxGeometry width="160" relative="1" as="geometry">
            <mxPoint x="80" y="230" as="sourcePoint" />
            <mxPoint x="240" y="140" as="targetPoint" />
          </mxGeometry>
        </mxCell>
        <mxCell id="vFogFTLMhH-ScmNpSSFJ-20" value="1" style="text;html=1;strokeColor=none;fillColor=none;align=center;verticalAlign=middle;whiteSpace=wrap;rounded=0;" parent="1" vertex="1">
          <mxGeometry x="321" y="108" width="40" height="20" as="geometry" />
        </mxCell>
        <mxCell id="vFogFTLMhH-ScmNpSSFJ-22" value="n" style="text;html=1;strokeColor=none;fillColor=none;align=center;verticalAlign=middle;whiteSpace=wrap;rounded=0;" parent="1" vertex="1">
          <mxGeometry x="383" y="137" width="40" height="20" as="geometry" />
        </mxCell>
        <mxCell id="vFogFTLMhH-ScmNpSSFJ-23" value="Token" style="rounded=0;whiteSpace=wrap;html=1;fillColor=#fff2cc;strokeColor=#d6b656;fontSize=11;fontStyle=2" parent="1" vertex="1">
          <mxGeometry x="159.5" y="520" width="40" height="40" as="geometry" />
        </mxCell>
        <mxCell id="vFogFTLMhH-ScmNpSSFJ-30" value="Token" style="rounded=0;whiteSpace=wrap;html=1;fillColor=#fff2cc;strokeColor=#d6b656;fontSize=11;fontStyle=2" parent="1" vertex="1">
          <mxGeometry x="199.5" y="520" width="40" height="40" as="geometry" />
        </mxCell>
        <mxCell id="vFogFTLMhH-ScmNpSSFJ-31" value="Token" style="rounded=0;whiteSpace=wrap;html=1;fillColor=#fff2cc;strokeColor=#d6b656;fontSize=11;fontStyle=2" parent="1" vertex="1">
          <mxGeometry x="239.5" y="520" width="40" height="40" as="geometry" />
        </mxCell>
        <mxCell id="vFogFTLMhH-ScmNpSSFJ-32" value="Token" style="rounded=0;whiteSpace=wrap;html=1;fillColor=#fff2cc;strokeColor=#d6b656;fontSize=11;fontStyle=2" parent="1" vertex="1">
          <mxGeometry x="279.5" y="520" width="40" height="40" as="geometry" />
        </mxCell>
        <mxCell id="vFogFTLMhH-ScmNpSSFJ-33" value="Token" style="rounded=0;whiteSpace=wrap;html=1;fillColor=#fff2cc;strokeColor=#d6b656;fontSize=11;fontStyle=2" parent="1" vertex="1">
          <mxGeometry x="319.5" y="520" width="40" height="40" as="geometry" />
        </mxCell>
        <mxCell id="vFogFTLMhH-ScmNpSSFJ-34" value="Token" style="rounded=0;whiteSpace=wrap;html=1;fillColor=#fff2cc;strokeColor=#d6b656;fontSize=11;fontStyle=2" parent="1" vertex="1">
          <mxGeometry x="359.5" y="520" width="40" height="40" as="geometry" />
        </mxCell>
        <mxCell id="vFogFTLMhH-ScmNpSSFJ-35" value="Token" style="rounded=0;whiteSpace=wrap;html=1;fillColor=#fff2cc;strokeColor=#d6b656;fontSize=11;fontStyle=2" parent="1" vertex="1">
          <mxGeometry x="400.5" y="520" width="40" height="40" as="geometry" />
        </mxCell>
        <mxCell id="vFogFTLMhH-ScmNpSSFJ-36" value="Token" style="rounded=0;whiteSpace=wrap;html=1;fillColor=#fff2cc;strokeColor=#d6b656;fontSize=11;fontStyle=2" parent="1" vertex="1">
          <mxGeometry x="440.5" y="520" width="40" height="40" as="geometry" />
        </mxCell>
        <mxCell id="vFogFTLMhH-ScmNpSSFJ-37" value="Token" style="rounded=0;whiteSpace=wrap;html=1;fillColor=#fff2cc;strokeColor=#d6b656;fontSize=11;fontStyle=2" parent="1" vertex="1">
          <mxGeometry x="480.5" y="520" width="40" height="40" as="geometry" />
        </mxCell>
        <mxCell id="vFogFTLMhH-ScmNpSSFJ-38" value="Token" style="rounded=0;whiteSpace=wrap;html=1;fillColor=#fff2cc;strokeColor=#d6b656;fontSize=11;fontStyle=2" parent="1" vertex="1">
          <mxGeometry x="520.5" y="520" width="40" height="40" as="geometry" />
        </mxCell>
        <mxCell id="vFogFTLMhH-ScmNpSSFJ-41" value="Contexto Actual" style="text;html=1;strokeColor=none;fillColor=none;align=center;verticalAlign=middle;whiteSpace=wrap;rounded=0;fontSize=11;" parent="1" vertex="1">
          <mxGeometry x="80" y="530" width="40" height="20" as="geometry" />
        </mxCell>
        <mxCell id="vFogFTLMhH-ScmNpSSFJ-42" value="" style="endArrow=classic;html=1;fontSize=11;strokeWidth=2;" parent="1" edge="1">
          <mxGeometry width="50" height="50" relative="1" as="geometry">
            <mxPoint x="160" y="510" as="sourcePoint" />
            <mxPoint x="260" y="510" as="targetPoint" />
          </mxGeometry>
        </mxCell>
        <mxCell id="vFogFTLMhH-ScmNpSSFJ-45" value="Contexto Hijo" style="text;html=1;strokeColor=none;fillColor=none;align=center;verticalAlign=middle;whiteSpace=wrap;rounded=0;fontSize=11;" parent="1" vertex="1">
          <mxGeometry x="190" y="410" width="40" height="20" as="geometry" />
        </mxCell>
        <mxCell id="vFogFTLMhH-ScmNpSSFJ-46" value="Token" style="rounded=0;whiteSpace=wrap;html=1;fillColor=#fff2cc;strokeColor=#d6b656;fontSize=11;fontStyle=2" parent="1" vertex="1">
          <mxGeometry x="241" y="400" width="40" height="40" as="geometry" />
        </mxCell>
        <mxCell id="vFogFTLMhH-ScmNpSSFJ-47" value="Token" style="rounded=0;whiteSpace=wrap;html=1;fillColor=#fff2cc;strokeColor=#d6b656;fontSize=11;fontStyle=2" parent="1" vertex="1">
          <mxGeometry x="281" y="400" width="40" height="40" as="geometry" />
        </mxCell>
        <mxCell id="vFogFTLMhH-ScmNpSSFJ-48" value="Token" style="rounded=0;whiteSpace=wrap;html=1;fillColor=#fff2cc;strokeColor=#d6b656;fontSize=11;fontStyle=2" parent="1" vertex="1">
          <mxGeometry x="321" y="400" width="40" height="40" as="geometry" />
        </mxCell>
        <mxCell id="vFogFTLMhH-ScmNpSSFJ-49" value="Token" style="rounded=0;whiteSpace=wrap;html=1;fillColor=#fff2cc;strokeColor=#d6b656;fontSize=11;fontStyle=2" parent="1" vertex="1">
          <mxGeometry x="361" y="400" width="40" height="40" as="geometry" />
        </mxCell>
        <mxCell id="vFogFTLMhH-ScmNpSSFJ-51" value="" style="endArrow=classic;html=1;fontSize=11;strokeWidth=2;" parent="1" edge="1">
          <mxGeometry width="50" height="50" relative="1" as="geometry">
            <mxPoint x="261.0000000000001" y="450" as="sourcePoint" />
            <mxPoint x="380" y="450" as="targetPoint" />
          </mxGeometry>
        </mxCell>
        <mxCell id="vFogFTLMhH-ScmNpSSFJ-52" value="" style="endArrow=classic;html=1;fontSize=11;strokeWidth=2;" parent="1" edge="1">
          <mxGeometry width="50" height="50" relative="1" as="geometry">
            <mxPoint x="261.0000000000001" y="510" as="sourcePoint" />
            <mxPoint x="261" y="450" as="targetPoint" />
          </mxGeometry>
        </mxCell>
        <mxCell id="vFogFTLMhH-ScmNpSSFJ-53" value="" style="endArrow=classic;html=1;fontSize=11;strokeWidth=2;" parent="1" edge="1">
          <mxGeometry width="50" height="50" relative="1" as="geometry">
            <mxPoint x="380" y="450" as="sourcePoint" />
            <mxPoint x="300" y="510" as="targetPoint" />
          </mxGeometry>
        </mxCell>
        <mxCell id="vFogFTLMhH-ScmNpSSFJ-54" value="" style="endArrow=classic;html=1;fontSize=11;strokeWidth=2;" parent="1" edge="1">
          <mxGeometry width="50" height="50" relative="1" as="geometry">
            <mxPoint x="304.0000000000001" y="510" as="sourcePoint" />
            <mxPoint x="550" y="510" as="targetPoint" />
          </mxGeometry>
        </mxCell>
        <mxCell id="JXxuslvElgfbPoVMskwX-1" value="Text" style="text;html=1;strokeColor=none;fillColor=none;align=center;verticalAlign=middle;whiteSpace=wrap;rounded=0;" parent="1" vertex="1">
          <mxGeometry x="400" y="510" width="40" height="20" as="geometry" />
        </mxCell>
        <mxCell id="JXxuslvElgfbPoVMskwX-2" value="123 + var_word_1" style="text;html=1;strokeColor=none;fillColor=none;align=center;verticalAlign=middle;whiteSpace=wrap;rounded=0;fontSize=24;" parent="1" vertex="1">
          <mxGeometry x="190" y="720" width="285.5" height="30" as="geometry" />
        </mxCell>
        <mxCell id="JXxuslvElgfbPoVMskwX-3" value="Llamada al &quot;getter&quot; de Byte" style="text;html=1;strokeColor=none;fillColor=none;align=center;verticalAlign=middle;whiteSpace=wrap;rounded=0;fontSize=14;fontColor=#FF3333;" parent="1" vertex="1">
          <mxGeometry x="149.25" y="640" width="140.5" height="20" as="geometry" />
        </mxCell>
        <mxCell id="JXxuslvElgfbPoVMskwX-4" value="Llamada al &quot;getter&quot; de Word" style="text;html=1;strokeColor=none;fillColor=none;align=center;verticalAlign=middle;whiteSpace=wrap;rounded=0;fontSize=14;fontColor=#FF3333;" parent="1" vertex="1">
          <mxGeometry x="370" y="640" width="140.5" height="20" as="geometry" />
        </mxCell>
        <mxCell id="JXxuslvElgfbPoVMskwX-5" value="" style="endArrow=classic;html=1;fontSize=24;fontColor=#FF3333;entryX=0.25;entryY=0;entryDx=0;entryDy=0;strokeColor=#FF3333;strokeWidth=2;" parent="1" target="JXxuslvElgfbPoVMskwX-2" edge="1">
          <mxGeometry width="50" height="50" relative="1" as="geometry">
            <mxPoint x="220" y="670" as="sourcePoint" />
            <mxPoint x="270" y="620" as="targetPoint" />
          </mxGeometry>
        </mxCell>
        <mxCell id="JXxuslvElgfbPoVMskwX-6" value="" style="endArrow=classic;html=1;fontSize=24;fontColor=#FF3333;entryX=0.604;entryY=-0.047;entryDx=0;entryDy=0;strokeColor=#FF3333;entryPerimeter=0;strokeWidth=2;" parent="1" target="JXxuslvElgfbPoVMskwX-2" edge="1">
          <mxGeometry width="50" height="50" relative="1" as="geometry">
            <mxPoint x="440" y="670" as="sourcePoint" />
            <mxPoint x="299.3749999999998" y="730" as="targetPoint" />
          </mxGeometry>
        </mxCell>
        <mxCell id="JXxuslvElgfbPoVMskwX-7" value="&amp;nbsp; n :=&amp;nbsp;1;" style="text;html=1;strokeColor=none;fillColor=none;align=center;verticalAlign=middle;whiteSpace=wrap;rounded=0;fontSize=26;" parent="1" vertex="1">
          <mxGeometry x="190" y="880" width="120" height="30" as="geometry" />
        </mxCell>
        <mxCell id="JXxuslvElgfbPoVMskwX-8" value="Llamada al &quot;setter&quot; de Byte" style="text;html=1;strokeColor=none;fillColor=none;align=center;verticalAlign=middle;whiteSpace=wrap;rounded=0;fontSize=14;fontColor=#FF3333;" parent="1" vertex="1">
          <mxGeometry x="149.25" y="800" width="140.5" height="20" as="geometry" />
        </mxCell>
        <mxCell id="JXxuslvElgfbPoVMskwX-10" value="" style="endArrow=classic;html=1;fontSize=24;fontColor=#FF3333;entryX=0.5;entryY=0;entryDx=0;entryDy=0;strokeColor=#FF3333;strokeWidth=2;" parent="1" target="JXxuslvElgfbPoVMskwX-7" edge="1">
          <mxGeometry width="50" height="50" relative="1" as="geometry">
            <mxPoint x="220" y="830" as="sourcePoint" />
            <mxPoint x="270" y="780" as="targetPoint" />
          </mxGeometry>
        </mxCell>
      </root>
    </mxGraphModel>
  </diagram>
  <diagram id="zz1XL7Aozt3nPamzYVQh" name="Elementos">
    <mxGraphModel dx="1036" dy="614" grid="0" gridSize="10" guides="1" tooltips="1" connect="1" arrows="1" fold="1" page="1" pageScale="1" pageWidth="827" pageHeight="1169" math="0" shadow="0">
      <root>
        <mxCell id="YsB_y5hgC9i4X0q86Rgp-0" />
        <mxCell id="YsB_y5hgC9i4X0q86Rgp-1" parent="YsB_y5hgC9i4X0q86Rgp-0" />
        <mxCell id="YsB_y5hgC9i4X0q86Rgp-15" value="" style="rounded=0;whiteSpace=wrap;html=1;dashed=1;fillColor=#f5f5f5;strokeColor=#666666;fontColor=#333333;" parent="YsB_y5hgC9i4X0q86Rgp-1" vertex="1">
          <mxGeometry x="40" y="340" width="280" height="140" as="geometry" />
        </mxCell>
        <mxCell id="YsB_y5hgC9i4X0q86Rgp-27" value="" style="rounded=0;whiteSpace=wrap;html=1;dashed=1;fillColor=#dae8fc;strokeColor=#6c8ebf;" parent="YsB_y5hgC9i4X0q86Rgp-1" vertex="1">
          <mxGeometry x="360" y="400" width="360" height="160" as="geometry" />
        </mxCell>
        <mxCell id="YsB_y5hgC9i4X0q86Rgp-21" value="" style="rounded=0;whiteSpace=wrap;html=1;dashed=1;fillColor=#ffe6cc;strokeColor=#d79b00;" parent="YsB_y5hgC9i4X0q86Rgp-1" vertex="1">
          <mxGeometry x="40" y="160" width="200" height="140" as="geometry" />
        </mxCell>
        <mxCell id="YsB_y5hgC9i4X0q86Rgp-2" value="TAstElement" style="swimlane;fontStyle=0;childLayout=stackLayout;horizontal=1;startSize=26;fillColor=none;horizontalStack=0;resizeParent=1;resizeParentMax=0;resizeLast=0;collapsible=1;marginBottom=0;" parent="YsB_y5hgC9i4X0q86Rgp-1" vertex="1">
          <mxGeometry x="170" y="40" width="320" height="50" as="geometry">
            <mxRectangle x="160" y="70" width="100" height="26" as="alternateBounds" />
          </mxGeometry>
        </mxCell>
        <mxCell id="YsB_y5hgC9i4X0q86Rgp-9" value="" style="endArrow=blockThin;endSize=16;endFill=0;html=1;exitX=1;exitY=0.5;exitDx=0;exitDy=0;startArrow=none;startFill=0;" parent="YsB_y5hgC9i4X0q86Rgp-1" source="YsB_y5hgC9i4X0q86Rgp-5" edge="1">
          <mxGeometry width="160" relative="1" as="geometry">
            <mxPoint x="240" y="210" as="sourcePoint" />
            <mxPoint x="250" y="90" as="targetPoint" />
          </mxGeometry>
        </mxCell>
        <mxCell id="YsB_y5hgC9i4X0q86Rgp-12" value="TEleSentence" style="swimlane;fontStyle=0;childLayout=stackLayout;horizontal=1;startSize=26;fillColor=none;horizontalStack=0;resizeParent=1;resizeParentMax=0;resizeLast=0;collapsible=1;marginBottom=0;" parent="YsB_y5hgC9i4X0q86Rgp-1" vertex="1" collapsed="1">
          <mxGeometry x="140" y="360" width="110" height="26" as="geometry">
            <mxRectangle x="110" y="660" width="120" height="52" as="alternateBounds" />
          </mxGeometry>
        </mxCell>
        <mxCell id="YsB_y5hgC9i4X0q86Rgp-13" value="TEleAsmInstr" style="swimlane;fontStyle=0;childLayout=stackLayout;horizontal=1;startSize=26;fillColor=none;horizontalStack=0;resizeParent=1;resizeParentMax=0;resizeLast=0;collapsible=1;marginBottom=0;" parent="YsB_y5hgC9i4X0q86Rgp-1" vertex="1" collapsed="1">
          <mxGeometry x="170" y="400" width="100" height="26" as="geometry">
            <mxRectangle x="240" y="660" width="120" height="52" as="alternateBounds" />
          </mxGeometry>
        </mxCell>
        <mxCell id="YsB_y5hgC9i4X0q86Rgp-14" value="TEleAsmBlock" style="swimlane;fontStyle=0;childLayout=stackLayout;horizontal=1;startSize=26;fillColor=none;horizontalStack=0;resizeParent=1;resizeParentMax=0;resizeLast=0;collapsible=1;marginBottom=0;" parent="YsB_y5hgC9i4X0q86Rgp-1" vertex="1" collapsed="1">
          <mxGeometry x="180" y="440" width="110" height="26" as="geometry">
            <mxRectangle x="370" y="660" width="120" height="52" as="alternateBounds" />
          </mxGeometry>
        </mxCell>
        <mxCell id="YsB_y5hgC9i4X0q86Rgp-16" value="Instructions relative elements" style="text;html=1;strokeColor=none;fillColor=none;align=center;verticalAlign=middle;whiteSpace=wrap;rounded=0;dashed=1;" parent="YsB_y5hgC9i4X0q86Rgp-1" vertex="1">
          <mxGeometry x="40" y="303" width="110" height="40" as="geometry" />
        </mxCell>
        <mxCell id="YsB_y5hgC9i4X0q86Rgp-22" value="Expression elements" style="text;html=1;strokeColor=none;fillColor=none;align=center;verticalAlign=middle;whiteSpace=wrap;rounded=0;dashed=1;" parent="YsB_y5hgC9i4X0q86Rgp-1" vertex="1">
          <mxGeometry x="40" y="120" width="90" height="40" as="geometry" />
        </mxCell>
        <mxCell id="YsB_y5hgC9i4X0q86Rgp-23" value="" style="rounded=0;whiteSpace=wrap;html=1;dashed=1;fillColor=#fff2cc;strokeColor=#d6b656;" parent="YsB_y5hgC9i4X0q86Rgp-1" vertex="1">
          <mxGeometry x="420" y="160" width="300" height="200" as="geometry" />
        </mxCell>
        <mxCell id="YsB_y5hgC9i4X0q86Rgp-24" value="Declaration elements" style="text;html=1;strokeColor=none;fillColor=none;align=center;verticalAlign=middle;whiteSpace=wrap;rounded=0;dashed=1;" parent="YsB_y5hgC9i4X0q86Rgp-1" vertex="1">
          <mxGeometry x="630" y="120" width="90" height="40" as="geometry" />
        </mxCell>
        <mxCell id="YsB_y5hgC9i4X0q86Rgp-25" value="" style="endArrow=blockThin;endSize=16;endFill=0;html=1;exitX=1;exitY=0.5;exitDx=0;exitDy=0;" parent="YsB_y5hgC9i4X0q86Rgp-1" source="YsB_y5hgC9i4X0q86Rgp-6" edge="1">
          <mxGeometry width="160" relative="1" as="geometry">
            <mxPoint x="370" y="270" as="sourcePoint" />
            <mxPoint x="260" y="90" as="targetPoint" />
          </mxGeometry>
        </mxCell>
        <mxCell id="YsB_y5hgC9i4X0q86Rgp-28" value="Structural elements" style="text;html=1;strokeColor=none;fillColor=none;align=center;verticalAlign=middle;whiteSpace=wrap;rounded=0;dashed=1;" parent="YsB_y5hgC9i4X0q86Rgp-1" vertex="1">
          <mxGeometry x="640" y="363" width="90" height="40" as="geometry" />
        </mxCell>
        <mxCell id="YsB_y5hgC9i4X0q86Rgp-30" value="" style="endArrow=blockThin;endSize=16;endFill=0;html=1;exitX=0.5;exitY=0;exitDx=0;exitDy=0;" parent="YsB_y5hgC9i4X0q86Rgp-1" source="YsB_y5hgC9i4X0q86Rgp-10" edge="1">
          <mxGeometry width="160" relative="1" as="geometry">
            <mxPoint x="400" y="400" as="sourcePoint" />
            <mxPoint x="370" y="90" as="targetPoint" />
          </mxGeometry>
        </mxCell>
        <mxCell id="YsB_y5hgC9i4X0q86Rgp-31" value="" style="endArrow=blockThin;endSize=16;endFill=0;html=1;exitX=1;exitY=0.5;exitDx=0;exitDy=0;startArrow=none;" parent="YsB_y5hgC9i4X0q86Rgp-1" source="YsB_y5hgC9i4X0q86Rgp-7" edge="1">
          <mxGeometry width="160" relative="1" as="geometry">
            <mxPoint x="780" y="470" as="sourcePoint" />
            <mxPoint x="270" y="90" as="targetPoint" />
          </mxGeometry>
        </mxCell>
        <mxCell id="YsB_y5hgC9i4X0q86Rgp-32" value="" style="endArrow=blockThin;endSize=16;endFill=0;html=1;exitX=1;exitY=0.5;exitDx=0;exitDy=0;" parent="YsB_y5hgC9i4X0q86Rgp-1" source="YsB_y5hgC9i4X0q86Rgp-12" edge="1">
          <mxGeometry width="160" relative="1" as="geometry">
            <mxPoint x="530" y="230" as="sourcePoint" />
            <mxPoint x="330" y="90" as="targetPoint" />
          </mxGeometry>
        </mxCell>
        <mxCell id="YsB_y5hgC9i4X0q86Rgp-33" value="" style="endArrow=blockThin;endSize=16;endFill=0;html=1;exitX=1;exitY=0.5;exitDx=0;exitDy=0;" parent="YsB_y5hgC9i4X0q86Rgp-1" source="YsB_y5hgC9i4X0q86Rgp-13" edge="1">
          <mxGeometry width="160" relative="1" as="geometry">
            <mxPoint x="550" y="312" as="sourcePoint" />
            <mxPoint x="340" y="90" as="targetPoint" />
          </mxGeometry>
        </mxCell>
        <mxCell id="YsB_y5hgC9i4X0q86Rgp-34" value="" style="endArrow=blockThin;endSize=16;endFill=0;html=1;exitX=1;exitY=0.5;exitDx=0;exitDy=0;" parent="YsB_y5hgC9i4X0q86Rgp-1" source="YsB_y5hgC9i4X0q86Rgp-14" edge="1">
          <mxGeometry width="160" relative="1" as="geometry">
            <mxPoint x="600" y="320" as="sourcePoint" />
            <mxPoint x="350" y="90" as="targetPoint" />
          </mxGeometry>
        </mxCell>
        <mxCell id="YsB_y5hgC9i4X0q86Rgp-3" value="TEleCodeCont" style="swimlane;fontStyle=0;childLayout=stackLayout;horizontal=1;startSize=26;horizontalStack=0;resizeParent=1;resizeParentMax=0;resizeLast=0;collapsible=1;marginBottom=0;" parent="YsB_y5hgC9i4X0q86Rgp-1" vertex="1" collapsed="1">
          <mxGeometry x="440" y="180" width="120" height="26" as="geometry">
            <mxRectangle x="440" y="180" width="150" height="52" as="alternateBounds" />
          </mxGeometry>
        </mxCell>
        <mxCell id="YsB_y5hgC9i4X0q86Rgp-6" value="TEleExpress" style="swimlane;fontStyle=0;childLayout=stackLayout;horizontal=1;startSize=26;horizontalStack=0;resizeParent=1;resizeParentMax=0;resizeLast=0;collapsible=1;marginBottom=0;" parent="YsB_y5hgC9i4X0q86Rgp-1" vertex="1" collapsed="1">
          <mxGeometry x="90" y="206" width="100" height="26" as="geometry">
            <mxRectangle x="60" y="232" width="90" height="52" as="alternateBounds" />
          </mxGeometry>
        </mxCell>
        <mxCell id="YsB_y5hgC9i4X0q86Rgp-11" value="TEleFinal" style="swimlane;fontStyle=0;childLayout=stackLayout;horizontal=1;startSize=26;horizontalStack=0;resizeParent=1;resizeParentMax=0;resizeLast=0;collapsible=1;marginBottom=0;" parent="YsB_y5hgC9i4X0q86Rgp-1" vertex="1" collapsed="1">
          <mxGeometry x="370" y="414" width="80" height="26" as="geometry">
            <mxRectangle x="340" y="414" width="120" height="52" as="alternateBounds" />
          </mxGeometry>
        </mxCell>
        <mxCell id="YsB_y5hgC9i4X0q86Rgp-5" value="TEleAsmOperat" style="swimlane;fontStyle=0;childLayout=stackLayout;horizontal=1;startSize=26;horizontalStack=0;resizeParent=1;resizeParentMax=0;resizeLast=0;collapsible=1;marginBottom=0;" parent="YsB_y5hgC9i4X0q86Rgp-1" vertex="1" collapsed="1">
          <mxGeometry x="60" y="168" width="120" height="26" as="geometry">
            <mxRectangle x="60" y="168" width="110" height="52" as="alternateBounds" />
          </mxGeometry>
        </mxCell>
        <mxCell id="YsB_y5hgC9i4X0q86Rgp-38" value="TEleVarDec" style="swimlane;fontStyle=0;childLayout=stackLayout;horizontal=1;startSize=26;horizontalStack=0;resizeParent=1;resizeParentMax=0;resizeLast=0;collapsible=1;marginBottom=0;" parent="YsB_y5hgC9i4X0q86Rgp-1" vertex="1" collapsed="1">
          <mxGeometry x="600" y="230" width="100" height="26" as="geometry">
            <mxRectangle x="620" y="220" width="90" height="52" as="alternateBounds" />
          </mxGeometry>
        </mxCell>
        <mxCell id="YsB_y5hgC9i4X0q86Rgp-39" value="" style="endArrow=blockThin;endSize=16;endFill=0;html=1;exitX=0;exitY=0.5;exitDx=0;exitDy=0;" parent="YsB_y5hgC9i4X0q86Rgp-1" source="YsB_y5hgC9i4X0q86Rgp-36" edge="1">
          <mxGeometry width="160" relative="1" as="geometry">
            <mxPoint x="510" y="332" as="sourcePoint" />
            <mxPoint x="530" y="206" as="targetPoint" />
          </mxGeometry>
        </mxCell>
        <mxCell id="YsB_y5hgC9i4X0q86Rgp-40" value="" style="endArrow=blockThin;endSize=16;endFill=0;html=1;exitX=0;exitY=0.25;exitDx=0;exitDy=0;entryX=0.75;entryY=1;entryDx=0;entryDy=0;" parent="YsB_y5hgC9i4X0q86Rgp-1" source="YsB_y5hgC9i4X0q86Rgp-37" target="YsB_y5hgC9i4X0q86Rgp-3" edge="1">
          <mxGeometry width="160" relative="1" as="geometry">
            <mxPoint x="500" y="300" as="sourcePoint" />
            <mxPoint x="500" y="252" as="targetPoint" />
          </mxGeometry>
        </mxCell>
        <mxCell id="YsB_y5hgC9i4X0q86Rgp-41" value="" style="endArrow=blockThin;endSize=16;endFill=0;html=1;exitX=0;exitY=0.25;exitDx=0;exitDy=0;entryX=0.75;entryY=1;entryDx=0;entryDy=0;" parent="YsB_y5hgC9i4X0q86Rgp-1" source="YsB_y5hgC9i4X0q86Rgp-38" target="YsB_y5hgC9i4X0q86Rgp-3" edge="1">
          <mxGeometry width="160" relative="1" as="geometry">
            <mxPoint x="640" y="300" as="sourcePoint" />
            <mxPoint x="560" y="220" as="targetPoint" />
          </mxGeometry>
        </mxCell>
        <mxCell id="YsB_y5hgC9i4X0q86Rgp-42" value="TEleBody" style="swimlane;fontStyle=0;childLayout=stackLayout;horizontal=1;startSize=26;horizontalStack=0;resizeParent=1;resizeParentMax=0;resizeLast=0;collapsible=1;marginBottom=0;" parent="YsB_y5hgC9i4X0q86Rgp-1" vertex="1" collapsed="1">
          <mxGeometry x="484" y="414" width="80" height="26" as="geometry">
            <mxRectangle x="440" y="410" width="120" height="52" as="alternateBounds" />
          </mxGeometry>
        </mxCell>
        <mxCell id="YsB_y5hgC9i4X0q86Rgp-43" value="TEleBlock" style="swimlane;fontStyle=0;childLayout=stackLayout;horizontal=1;startSize=26;horizontalStack=0;resizeParent=1;resizeParentMax=0;resizeLast=0;collapsible=1;marginBottom=0;" parent="YsB_y5hgC9i4X0q86Rgp-1" vertex="1" collapsed="1">
          <mxGeometry x="584" y="414" width="90" height="26" as="geometry">
            <mxRectangle x="580" y="410" width="120" height="52" as="alternateBounds" />
          </mxGeometry>
        </mxCell>
        <mxCell id="YsB_y5hgC9i4X0q86Rgp-44" value="" style="endArrow=blockThin;endSize=16;endFill=0;html=1;exitX=0.5;exitY=0;exitDx=0;exitDy=0;entryX=0.5;entryY=1;entryDx=0;entryDy=0;" parent="YsB_y5hgC9i4X0q86Rgp-1" source="YsB_y5hgC9i4X0q86Rgp-42" target="YsB_y5hgC9i4X0q86Rgp-3" edge="1">
          <mxGeometry width="160" relative="1" as="geometry">
            <mxPoint x="470" y="478" as="sourcePoint" />
            <mxPoint x="540" y="260" as="targetPoint" />
          </mxGeometry>
        </mxCell>
        <mxCell id="YsB_y5hgC9i4X0q86Rgp-45" value="" style="endArrow=blockThin;endSize=16;endFill=0;html=1;exitX=0.25;exitY=0;exitDx=0;exitDy=0;entryX=0.5;entryY=1;entryDx=0;entryDy=0;" parent="YsB_y5hgC9i4X0q86Rgp-1" source="YsB_y5hgC9i4X0q86Rgp-43" target="YsB_y5hgC9i4X0q86Rgp-3" edge="1">
          <mxGeometry width="160" relative="1" as="geometry">
            <mxPoint x="560" y="468" as="sourcePoint" />
            <mxPoint x="540" y="230" as="targetPoint" />
          </mxGeometry>
        </mxCell>
        <mxCell id="YsB_y5hgC9i4X0q86Rgp-37" value="TEleConsDec" style="swimlane;fontStyle=0;childLayout=stackLayout;horizontal=1;startSize=26;horizontalStack=0;resizeParent=1;resizeParentMax=0;resizeLast=0;collapsible=1;marginBottom=0;" parent="YsB_y5hgC9i4X0q86Rgp-1" vertex="1" collapsed="1">
          <mxGeometry x="580" y="274" width="110" height="26" as="geometry">
            <mxRectangle x="590" y="300" width="100" height="52" as="alternateBounds" />
          </mxGeometry>
        </mxCell>
        <mxCell id="YsB_y5hgC9i4X0q86Rgp-10" value="TEleProgFrame" style="swimlane;fontStyle=0;childLayout=stackLayout;horizontal=1;startSize=26;horizontalStack=0;resizeParent=1;resizeParentMax=0;resizeLast=0;collapsible=1;marginBottom=0;" parent="YsB_y5hgC9i4X0q86Rgp-1" vertex="1" collapsed="1">
          <mxGeometry x="414" y="460" width="120" height="26" as="geometry">
            <mxRectangle x="470" y="454" width="120" height="52" as="alternateBounds" />
          </mxGeometry>
        </mxCell>
        <mxCell id="YsB_y5hgC9i4X0q86Rgp-36" value="TEleTypeDec" style="swimlane;fontStyle=0;childLayout=stackLayout;horizontal=1;startSize=26;horizontalStack=0;resizeParent=1;resizeParentMax=0;resizeLast=0;collapsible=1;marginBottom=0;" parent="YsB_y5hgC9i4X0q86Rgp-1" vertex="1" collapsed="1">
          <mxGeometry x="580" y="316" width="100" height="26" as="geometry">
            <mxRectangle x="440" y="300" width="100" height="52" as="alternateBounds" />
          </mxGeometry>
        </mxCell>
        <mxCell id="YsB_y5hgC9i4X0q86Rgp-7" value="TEleCondit" style="swimlane;fontStyle=0;childLayout=stackLayout;horizontal=1;startSize=26;horizontalStack=0;resizeParent=1;resizeParentMax=0;resizeLast=0;collapsible=1;marginBottom=0;" parent="YsB_y5hgC9i4X0q86Rgp-1" vertex="1" collapsed="1">
          <mxGeometry x="120" y="247" width="90" height="26" as="geometry">
            <mxRectangle x="50" y="300" width="100" height="52" as="alternateBounds" />
          </mxGeometry>
        </mxCell>
        <mxCell id="YsB_y5hgC9i4X0q86Rgp-48" value="" style="endArrow=blockThin;endSize=16;endFill=0;html=1;exitX=0.5;exitY=0;exitDx=0;exitDy=0;" parent="YsB_y5hgC9i4X0q86Rgp-1" source="YsB_y5hgC9i4X0q86Rgp-11" edge="1">
          <mxGeometry width="160" relative="1" as="geometry">
            <mxPoint x="150" y="530" as="sourcePoint" />
            <mxPoint x="360" y="90" as="targetPoint" />
          </mxGeometry>
        </mxCell>
        <mxCell id="YsB_y5hgC9i4X0q86Rgp-4" value="" style="endArrow=blockThin;endSize=16;endFill=0;html=1;exitX=0.5;exitY=0;exitDx=0;exitDy=0;" parent="YsB_y5hgC9i4X0q86Rgp-1" source="YsB_y5hgC9i4X0q86Rgp-3" edge="1">
          <mxGeometry width="160" relative="1" as="geometry">
            <mxPoint x="150" y="180" as="sourcePoint" />
            <mxPoint x="440" y="90" as="targetPoint" />
          </mxGeometry>
        </mxCell>
        <mxCell id="YsB_y5hgC9i4X0q86Rgp-50" value="TEleProg" style="swimlane;fontStyle=0;childLayout=stackLayout;horizontal=1;startSize=26;horizontalStack=0;resizeParent=1;resizeParentMax=0;resizeLast=0;collapsible=1;marginBottom=0;" parent="YsB_y5hgC9i4X0q86Rgp-1" vertex="1" collapsed="1">
          <mxGeometry x="480" y="520" width="80" height="26" as="geometry">
            <mxRectangle x="50" y="480" width="120" height="52" as="alternateBounds" />
          </mxGeometry>
        </mxCell>
        <mxCell id="YsB_y5hgC9i4X0q86Rgp-51" value="TEleUnit" style="swimlane;fontStyle=0;childLayout=stackLayout;horizontal=1;startSize=26;horizontalStack=0;resizeParent=1;resizeParentMax=0;resizeLast=0;collapsible=1;marginBottom=0;" parent="YsB_y5hgC9i4X0q86Rgp-1" vertex="1" collapsed="1">
          <mxGeometry x="580" y="520" width="80" height="26" as="geometry">
            <mxRectangle x="150" y="480" width="120" height="52" as="alternateBounds" />
          </mxGeometry>
        </mxCell>
        <mxCell id="YsB_y5hgC9i4X0q86Rgp-52" value="" style="endArrow=blockThin;endSize=16;endFill=0;html=1;exitX=0.5;exitY=0;exitDx=0;exitDy=0;entryX=0.5;entryY=1;entryDx=0;entryDy=0;" parent="YsB_y5hgC9i4X0q86Rgp-1" source="YsB_y5hgC9i4X0q86Rgp-50" target="YsB_y5hgC9i4X0q86Rgp-10" edge="1">
          <mxGeometry width="160" relative="1" as="geometry">
            <mxPoint x="410" y="424" as="sourcePoint" />
            <mxPoint x="370" y="100" as="targetPoint" />
          </mxGeometry>
        </mxCell>
        <mxCell id="YsB_y5hgC9i4X0q86Rgp-53" value="" style="endArrow=blockThin;endSize=16;endFill=0;html=1;exitX=0.25;exitY=0;exitDx=0;exitDy=0;entryX=0.75;entryY=1;entryDx=0;entryDy=0;" parent="YsB_y5hgC9i4X0q86Rgp-1" source="YsB_y5hgC9i4X0q86Rgp-51" target="YsB_y5hgC9i4X0q86Rgp-10" edge="1">
          <mxGeometry width="160" relative="1" as="geometry">
            <mxPoint x="420" y="434" as="sourcePoint" />
            <mxPoint x="380" y="110" as="targetPoint" />
          </mxGeometry>
        </mxCell>
        <mxCell id="YsB_y5hgC9i4X0q86Rgp-54" value="Declaration elements (Functions)" style="text;html=1;strokeColor=none;fillColor=none;align=center;verticalAlign=middle;whiteSpace=wrap;rounded=0;dashed=1;" parent="YsB_y5hgC9i4X0q86Rgp-1" vertex="1">
          <mxGeometry x="40" y="483" width="120" height="40" as="geometry" />
        </mxCell>
        <mxCell id="YsB_y5hgC9i4X0q86Rgp-55" value="" style="rounded=0;whiteSpace=wrap;html=1;dashed=1;fillColor=#fff2cc;strokeColor=#d6b656;" parent="YsB_y5hgC9i4X0q86Rgp-1" vertex="1">
          <mxGeometry x="40" y="520" width="280" height="120" as="geometry" />
        </mxCell>
        <mxCell id="YsB_y5hgC9i4X0q86Rgp-56" value="TEleFunBase" style="swimlane;fontStyle=0;childLayout=stackLayout;horizontal=1;startSize=26;horizontalStack=0;resizeParent=1;resizeParentMax=0;resizeLast=0;collapsible=1;marginBottom=0;" parent="YsB_y5hgC9i4X0q86Rgp-1" vertex="1" collapsed="1">
          <mxGeometry x="196" y="540" width="106" height="26" as="geometry">
            <mxRectangle x="444" y="670" width="136" height="52" as="alternateBounds" />
          </mxGeometry>
        </mxCell>
        <mxCell id="YsB_y5hgC9i4X0q86Rgp-57" value="" style="endArrow=blockThin;endSize=16;endFill=0;html=1;exitX=0.75;exitY=0;exitDx=0;exitDy=0;entryX=0.25;entryY=1;entryDx=0;entryDy=0;" parent="YsB_y5hgC9i4X0q86Rgp-1" source="YsB_y5hgC9i4X0q86Rgp-56" target="YsB_y5hgC9i4X0q86Rgp-10" edge="1">
          <mxGeometry width="160" relative="1" as="geometry">
            <mxPoint x="540" y="540" as="sourcePoint" />
            <mxPoint x="484" y="506" as="targetPoint" />
          </mxGeometry>
        </mxCell>
        <mxCell id="YsB_y5hgC9i4X0q86Rgp-58" value="TEleFunDec" style="swimlane;fontStyle=0;childLayout=stackLayout;horizontal=1;startSize=26;horizontalStack=0;resizeParent=1;resizeParentMax=0;resizeLast=0;collapsible=1;marginBottom=0;" parent="YsB_y5hgC9i4X0q86Rgp-1" vertex="1" collapsed="1">
          <mxGeometry x="100" y="600" width="96" height="26" as="geometry">
            <mxRectangle x="444" y="670" width="136" height="52" as="alternateBounds" />
          </mxGeometry>
        </mxCell>
        <mxCell id="YsB_y5hgC9i4X0q86Rgp-59" value="TEleFunImp" style="swimlane;fontStyle=0;childLayout=stackLayout;horizontal=1;startSize=26;horizontalStack=0;resizeParent=1;resizeParentMax=0;resizeLast=0;collapsible=1;marginBottom=0;" parent="YsB_y5hgC9i4X0q86Rgp-1" vertex="1" collapsed="1">
          <mxGeometry x="212" y="600" width="76" height="26" as="geometry">
            <mxRectangle x="524" y="710" width="136" height="52" as="alternateBounds" />
          </mxGeometry>
        </mxCell>
        <mxCell id="YsB_y5hgC9i4X0q86Rgp-60" value="" style="endArrow=blockThin;endSize=16;endFill=0;html=1;exitX=0.5;exitY=0;exitDx=0;exitDy=0;entryX=0.25;entryY=1;entryDx=0;entryDy=0;" parent="YsB_y5hgC9i4X0q86Rgp-1" source="YsB_y5hgC9i4X0q86Rgp-58" target="YsB_y5hgC9i4X0q86Rgp-56" edge="1">
          <mxGeometry width="160" relative="1" as="geometry">
            <mxPoint x="134.83799999999997" y="551.404" as="sourcePoint" />
            <mxPoint x="134" y="416" as="targetPoint" />
          </mxGeometry>
        </mxCell>
        <mxCell id="YsB_y5hgC9i4X0q86Rgp-61" value="" style="endArrow=blockThin;endSize=16;endFill=0;html=1;exitX=0.5;exitY=0;exitDx=0;exitDy=0;entryX=0.5;entryY=1;entryDx=0;entryDy=0;" parent="YsB_y5hgC9i4X0q86Rgp-1" source="YsB_y5hgC9i4X0q86Rgp-59" target="YsB_y5hgC9i4X0q86Rgp-56" edge="1">
          <mxGeometry width="160" relative="1" as="geometry">
            <mxPoint x="144.83799999999997" y="561.404" as="sourcePoint" />
            <mxPoint x="144" y="426" as="targetPoint" />
          </mxGeometry>
        </mxCell>
      </root>
    </mxGraphModel>
  </diagram>
</mxfile>
